<?xml version="1.0" encoding="UTF-8" standalone="no"?>
<!DOCTYPE svg PUBLIC "-//W3C//DTD SVG 1.0//EN" "http://www.w3.org/TR/2001/PR-SVG-20010719/DTD/svg10.dtd">
<svg width="21cm" height="15cm" viewBox="-206 -159 417 296" xmlns="http://www.w3.org/2000/svg" xmlns:xlink="http://www.w3.org/1999/xlink">
  <g>
    <polygon style="fill: #ffffff" points="118.047,-85.409 67.1534,-86.951 37.8516,-69.987 -23.8368,-68.4446 -62.392,-86.951 -117.912,-86.951 -158.01,19.4613 -164.178,70.3546 -162.636,99.6566 -151.841,128.958 -125.623,136.669 -82.441,102.741 -45.4278,78.0656 48.647,78.0656 79.491,104.283 116.504,135.127 147.348,136.669 161.228,105.825 159.686,71.8966 153.517,30.2568 "/>
    <polygon style="fill: none; fill-opacity:0; stroke-width: 0.5; stroke: #000000" points="118.047,-85.409 67.1534,-86.951 37.8516,-69.987 -23.8368,-68.4446 -62.392,-86.951 -117.912,-86.951 -158.01,19.4613 -164.178,70.3546 -162.636,99.6566 -151.841,128.958 -125.623,136.669 -82.441,102.741 -45.4278,78.0656 48.647,78.0656 79.491,104.283 116.504,135.127 147.348,136.669 161.228,105.825 159.686,71.8966 153.517,30.2568 "/>
  </g>
  <g>
    <ellipse style="fill: #ffffff" cx="99.0166" cy="-108.143" rx="42.248" ry="35.3892"/>
    <ellipse style="fill: none; fill-opacity:0; stroke-width: 0.6; stroke: #000000" cx="99.0166" cy="-108.143" rx="42.248" ry="35.3892"/>
  </g>
  <g>
    <ellipse style="fill: #ffffff" cx="-94.5986" cy="-106.274" rx="42.248" ry="35.3892"/>
    <ellipse style="fill: none; fill-opacity:0; stroke-width: 0.6; stroke: #000000" cx="-94.5986" cy="-106.274" rx="42.248" ry="35.3892"/>
  </g>
  <g>
    <ellipse style="fill: #ffffff" cx="-3.91238" cy="-34.5461" rx="56.4336" ry="29.7163"/>
    <ellipse style="fill: none; fill-opacity:0; stroke-width: 0.5; stroke: #000000" cx="-3.91238" cy="-34.5461" rx="56.4336" ry="29.7163"/>
  </g>
  <g>
    <ellipse style="fill: #ffffff" cx="95.3236" cy="-34.0014" rx="43.3476" ry="43.3476"/>
    <ellipse style="fill: none; fill-opacity:0; stroke-width: 0.5; stroke: #000000" cx="95.3236" cy="-34.0014" rx="43.3476" ry="43.3476"/>
    <ellipse style="fill: none; fill-opacity:0; stroke-width: 0.5; stroke: #000000" cx="95.3236" cy="-34.0014" rx="43.3476" ry="43.3476"/>
  </g>
  <g>
    <ellipse style="fill: #bfbfbf" cx="-90.5451" cy="-36.9091" rx="21.4429" ry="21.4429"/>
    <ellipse style="fill: none; fill-opacity:0; stroke-width: 0.5; stroke: #000000" cx="-90.5451" cy="-36.9091" rx="21.4429" ry="21.4429"/>
    <ellipse style="fill: none; fill-opacity:0; stroke-width: 0.5; stroke: #000000" cx="-90.5451" cy="-36.9091" rx="21.4429" ry="21.4429"/>
  </g>
  <g>
    <ellipse style="fill: #bfbfbf" cx="43.2391" cy="17.831" rx="21.4429" ry="21.4429"/>
    <ellipse style="fill: none; fill-opacity:0; stroke-width: 0.5; stroke: #000000" cx="43.2391" cy="17.831" rx="21.4429" ry="21.4429"/>
    <ellipse style="fill: none; fill-opacity:0; stroke-width: 0.5; stroke: #000000" cx="43.2391" cy="17.831" rx="21.4429" ry="21.4429"/>
  </g>
  <g>
    <polygon style="fill: #bfbfbf" points="-71.506,25.5221 -71.506,10.0624 -56.4427,10.0624 -56.4427,-5.39726 -41.3794,-5.39726 -41.3794,10.0624 -26.3161,10.0624 -26.3161,25.5221 -41.3794,25.5221 -41.3794,40.9818 -56.4427,40.9818 -56.4427,25.5221 "/>
    <polygon style="fill: none; fill-opacity:0; stroke-width: 0.5; stroke: #000000" points="-71.506,25.5221 -71.506,10.0624 -56.4427,10.0624 -56.4427,-5.39726 -41.3794,-5.39726 -41.3794,10.0624 -26.3161,10.0624 -26.3161,25.5221 -41.3794,25.5221 -41.3794,40.9818 -56.4427,40.9818 -56.4427,25.5221 "/>
    <polygon style="fill: none; fill-opacity:0; stroke-width: 0.5; stroke: #000000" points="-71.506,25.5221 -71.506,10.0624 -56.4427,10.0624 -56.4427,-5.39726 -41.3794,-5.39726 -41.3794,10.0624 -26.3161,10.0624 -26.3161,25.5221 -41.3794,25.5221 -41.3794,40.9818 -56.4427,40.9818 -56.4427,25.5221 "/>
  </g>
  <text font-size="10.16" style="fill: #000000;text-anchor:start;font-family:sans-serif;font-style:normal;font-weight:normal" x="22.2914" y="57.7642">
    <tspan x="22.2914" y="57.7642">Right analog stick (RS)</tspan>
  </text>
  <text font-size="10.16" style="fill: #000000;text-anchor:start;font-family:sans-serif;font-style:normal;font-weight:normal" x="-143.753" y="58.2006">
    <tspan x="-143.753" y="58.2006">Directional pad (D-PAD)</tspan>
  </text>
  <g>
    <path style="fill: #ffffff" d="M 66.1524 -100.535 C 93.415,-100.535 120.678,-94.5376 120.678,-88.5398 C 120.678,-88.5398 66.1524,-88.5398 66.1524,-88.5398 C 66.1524,-88.5398 66.1524,-100.535 66.1524,-100.535z"/>
    <path style="fill: none; fill-opacity:0; stroke-width: 0.5; stroke: #000000" d="M 66.1524 -100.535 C 93.415,-100.535 120.678,-94.5376 120.678,-88.5398 C 120.678,-88.5398 66.1524,-88.5398 66.1524,-88.5398 C 66.1524,-88.5398 66.1524,-100.535 66.1524,-100.535"/>
    <path style="fill: none; fill-opacity:0; stroke-width: 0.5; stroke: #000000" d="M 66.1524 -100.535 C 93.415,-100.535 120.678,-94.5376 120.678,-88.5398 C 120.678,-88.5398 66.1524,-88.5398 66.1524,-88.5398 C 66.1524,-88.5398 66.1524,-100.535 66.1524,-100.535"/>
  </g>
  <g>
    <path style="fill: #ffffff" d="M -63.9184 -100.395 C -91.181,-100.395 -118.444,-94.3972 -118.444,-88.3994 C -118.444,-88.3994 -63.9184,-88.3994 -63.9184,-88.3994 C -63.9184,-88.3994 -63.9184,-100.395 -63.9184,-100.395z"/>
    <path style="fill: none; fill-opacity:0; stroke-width: 0.5; stroke: #000000" d="M -63.9184 -100.395 C -91.181,-100.395 -118.444,-94.3972 -118.444,-88.3994 C -118.444,-88.3994 -63.9184,-88.3994 -63.9184,-88.3994 C -63.9184,-88.3994 -63.9184,-100.395 -63.9184,-100.395"/>
    <path style="fill: none; fill-opacity:0; stroke-width: 0.5; stroke: #000000" d="M -63.9184 -100.395 C -91.181,-100.395 -118.444,-94.3972 -118.444,-88.3994 C -118.444,-88.3994 -63.9184,-88.3994 -63.9184,-88.3994 C -63.9184,-88.3994 -63.9184,-100.395 -63.9184,-100.395"/>
  </g>
  <text font-size="10.16" style="fill: #000000;text-anchor:start;font-family:sans-serif;font-style:normal;font-weight:normal" x="40.9166" y="-148.224">
    <tspan x="40.9166" y="-148.224">Right shoulder buttons</tspan>
  </text>
  <g>
    <rect style="fill: #ffffff" x="-94.1516" y="-132.419" width="17.9933" height="25.6269"/>
    <rect style="fill: none; fill-opacity:0; stroke-width: 0.5; stroke: #000000" x="-94.1516" y="-132.419" width="17.9933" height="25.6269"/>
  </g>
  <g>
    <rect style="fill: #ffffff" x="82.651" y="-133.369" width="17.9933" height="25.6269"/>
    <rect style="fill: none; fill-opacity:0; stroke-width: 0.5; stroke: #000000" x="82.651" y="-133.369" width="17.9933" height="25.6269"/>
  </g>
  <text font-size="10.16" style="fill: #000000;text-anchor:start;font-family:sans-serif;font-style:normal;font-weight:normal" x="146.039" y="-35.9986">
    <tspan x="146.039" y="-35.9986">Face buttons</tspan>
  </text>
  <text font-size="10.16" style="fill: #000000;text-anchor:start;font-family:sans-serif;font-style:normal;font-weight:normal" x="-39.1608" y="-80.1054">
    <tspan x="-39.1608" y="-80.1054">Control buttons</tspan>
  </text>
  <text font-size="10.16" style="fill: #000000;text-anchor:start;font-family:sans-serif;font-style:normal;font-weight:normal" x="-205.522" y="-7.0561">
    <tspan x="-205.522" y="-7.0561">Left analog stick (LS)</tspan>
  </text>
  <g>
    <g>
      <ellipse style="fill: #ffffff" cx="-29.5361" cy="-34.5462" rx="14.3661" ry="10"/>
      <ellipse style="fill: none; fill-opacity:0; stroke-width: 0.6; stroke: #000000" cx="-29.5361" cy="-34.5462" rx="14.3661" ry="10"/>
    </g>
    <text font-size="12.8" style="fill: #000000;text-anchor:start;font-family:sans-serif;font-style:normal;font-weight:normal" x="-33.6112" y="-31.3042">
      <tspan x="-33.6112" y="-31.3042">1</tspan>
    </text>
  </g>
  <g>
    <g>
      <ellipse style="fill: #ffffff" cx="23.3579" cy="-34.5462" rx="14.3661" ry="10"/>
      <ellipse style="fill: none; fill-opacity:0; stroke-width: 0.6; stroke: #000000" cx="23.3579" cy="-34.5462" rx="14.3661" ry="10"/>
    </g>
    <text font-size="12.8" style="fill: #000000;text-anchor:start;font-family:sans-serif;font-style:normal;font-weight:normal" x="19.2829" y="-31.001">
      <tspan x="19.2829" y="-31.001">2</tspan>
    </text>
  </g>
  <g>
    <g>
      <ellipse style="fill: #ffffff" cx="95.3933" cy="-58.0049" rx="13.7789" ry="13.7789"/>
      <ellipse style="fill: none; fill-opacity:0; stroke-width: 0.6; stroke: #000000" cx="95.3933" cy="-58.0049" rx="13.7789" ry="13.7789"/>
      <ellipse style="fill: none; fill-opacity:0; stroke-width: 0.6; stroke: #000000" cx="95.3933" cy="-58.0049" rx="13.7789" ry="13.7789"/>
    </g>
    <text font-size="12.8" style="fill: #000000;text-anchor:start;font-family:sans-serif;font-style:normal;font-weight:normal" x="91.3184" y="-56.2982">
      <tspan x="91.3184" y="-56.2982">4</tspan>
    </text>
  </g>
  <text font-size="12.8" style="fill: #000000;text-anchor:start;font-family:sans-serif;font-style:normal;font-weight:normal" x="-79.3634" y="-90.9858">
    <tspan x="-79.3634" y="-90.9858">1</tspan>
  </text>
  <text font-size="12.8" style="fill: #000000;text-anchor:start;font-family:sans-serif;font-style:normal;font-weight:normal" x="-89.2298" y="-115.181">
    <tspan x="-89.2298" y="-115.181">2</tspan>
  </text>
  <text font-size="12.8" style="fill: #000000;text-anchor:start;font-family:sans-serif;font-style:normal;font-weight:normal" x="76.7756" y="-90.433">
    <tspan x="76.7756" y="-90.433">1</tspan>
  </text>
  <text font-size="12.8" style="fill: #000000;text-anchor:start;font-family:sans-serif;font-style:normal;font-weight:normal" x="87.7596" y="-116.131">
    <tspan x="87.7596" y="-116.131">2</tspan>
  </text>
  <text font-size="10.16" style="fill: #000000;text-anchor:start;font-family:sans-serif;font-style:normal;font-weight:normal" x="-148.874" y="-148.647">
    <tspan x="-148.874" y="-148.647">Left shoulder buttons</tspan>
  </text>
  <g>
    <g>
      <ellipse style="fill: #ffffff" cx="121.978" cy="-34.3377" rx="13.7789" ry="13.7789"/>
      <ellipse style="fill: none; fill-opacity:0; stroke-width: 0.6; stroke: #000000" cx="121.978" cy="-34.3377" rx="13.7789" ry="13.7789"/>
      <ellipse style="fill: none; fill-opacity:0; stroke-width: 0.6; stroke: #000000" cx="121.978" cy="-34.3377" rx="13.7789" ry="13.7789"/>
    </g>
    <text font-size="12.8" style="fill: #000000;text-anchor:start;font-family:sans-serif;font-style:normal;font-weight:normal" x="117.903" y="-29.9127">
      <tspan x="117.903" y="-29.9127">2</tspan>
    </text>
  </g>
  <g>
    <g>
      <ellipse style="fill: #ffffff" cx="70.1051" cy="-34.3377" rx="13.7789" ry="13.7789"/>
      <ellipse style="fill: none; fill-opacity:0; stroke-width: 0.6; stroke: #000000" cx="70.1051" cy="-34.3377" rx="13.7789" ry="13.7789"/>
      <ellipse style="fill: none; fill-opacity:0; stroke-width: 0.6; stroke: #000000" cx="70.1051" cy="-34.3377" rx="13.7789" ry="13.7789"/>
    </g>
    <text font-size="12.8" style="fill: #000000;text-anchor:start;font-family:sans-serif;font-style:normal;font-weight:normal" x="66.0301" y="-29.9127">
      <tspan x="66.0301" y="-29.9127">3</tspan>
    </text>
  </g>
  <g>
    <g>
      <ellipse style="fill: #ffffff" cx="95.3933" cy="-9.99793" rx="13.7789" ry="13.7789"/>
      <ellipse style="fill: none; fill-opacity:0; stroke-width: 0.6; stroke: #000000" cx="95.3933" cy="-9.99793" rx="13.7789" ry="13.7789"/>
      <ellipse style="fill: none; fill-opacity:0; stroke-width: 0.6; stroke: #000000" cx="95.3933" cy="-9.99793" rx="13.7789" ry="13.7789"/>
    </g>
    <text font-size="12.8" style="fill: #000000;text-anchor:start;font-family:sans-serif;font-style:normal;font-weight:normal" x="91.3183" y="-5.57293">
      <tspan x="91.3183" y="-5.57293">1</tspan>
    </text>
  </g>
</svg>
